<?xml version="1.0" encoding="iso-8859-1"?>
<!-- Uploaded to: SVG Repo, www.svgrepo.com, Generator: SVG Repo Mixer Tools -->
<svg height="800px" width="800px" version="1.1" id="Layer_1" xmlns="http://www.w3.org/2000/svg" xmlns:xlink="http://www.w3.org/1999/xlink" 
	 viewBox="0 0 297.444 297.444" xml:space="preserve">
<g>
	<g>
		<path style="fill:#FFDA79;" d="M289.944,165.429c0,24.841-28.752,45-64.28,45c-27.27,0-50.57-11.88-59.91-28.66
			c-2.82-5.06-4.37-10.57-4.37-16.34c0-24.85,28.78-45,64.28-45C261.164,120.429,289.944,140.579,289.944,165.429z"/>
		<path style="fill:#F59D00;" d="M225.664,190.429c-25.393,0-44.28-13.093-44.28-25c0-11.801,18.937-25,44.28-25
			c25.066,0,44.28,12.95,44.28,25C269.944,177.304,251.109,190.429,225.664,190.429z"/>
		<path style="fill:#FFDA79;" d="M289.944,165.429v32.68c0,24.85-28.78,45-64.28,45c-35.5,0-64.28-20.15-64.28-45v-32.68
			c0,5.77,1.55,11.28,4.37,16.34c9.34,16.78,32.64,28.66,59.91,28.66C261.186,210.429,289.944,190.274,289.944,165.429z"/>
		<path style="fill:#FFDA79;" d="M289.944,198.402v32.68c0,24.85-28.78,45-64.28,45c-35.5,0-64.28-20.15-64.28-45v-32.68
			c0,5.77,1.55,11.28,4.37,16.34c9.34,16.78,32.64,28.66,59.91,28.66c27.27,0,50.57-11.88,59.91-28.66
			C288.395,209.682,289.944,204.172,289.944,198.402z"/>
	</g>
	<g>
		<path style="fill:#FFDA79;" d="M136.06,66.362c0,24.842-28.753,45-64.28,45c-35.521,0-64.28-20.154-64.28-45
			c0-24.85,28.78-45,64.28-45C107.28,21.362,136.06,41.512,136.06,66.362z"/>
		<path style="fill:#F59D00;" d="M71.78,91.362c-25.396,0-44.28-13.094-44.28-25c0-11.801,18.937-25,44.28-25
			c25.067,0,44.28,12.95,44.28,25C116.06,78.237,97.224,91.362,71.78,91.362z"/>
		<path style="fill:#FFDA79;" d="M136.06,66.362v32.68c0,24.85-28.78,45-64.28,45c-35.5,0-64.28-20.15-64.28-45v-32.68
			c0,24.843,28.755,45,64.28,45C107.303,111.362,136.06,91.207,136.06,66.362z"/>
		<path style="fill:#FFDA79;" d="M136.06,99.336v32.68c0,24.85-28.78,45-64.28,45c-35.5,0-64.28-20.15-64.28-45v-32.68
			c0,5.77,1.55,11.28,4.37,16.34c9.34,16.78,32.64,28.66,59.91,28.66c27.27,0,50.57-11.88,59.91-28.66
			C134.51,110.616,136.06,105.105,136.06,99.336z"/>
		<path style="fill:#FFDA79;" d="M136.06,132.309v32.68c0,24.85-28.78,45-64.28,45c-35.5,0-64.28-20.15-64.28-45v-32.68
			c0,5.77,1.55,11.28,4.37,16.34c9.34,16.78,32.64,28.66,59.91,28.66c27.27,0,50.57-11.88,59.91-28.66
			C134.51,143.589,136.06,138.079,136.06,132.309z"/>
		<path style="fill:#FFDA79;" d="M136.06,165.282v32.68c0,24.85-28.78,45-64.28,45c-35.5,0-64.28-20.15-64.28-45v-32.68
			c0,5.77,1.55,11.28,4.37,16.34c9.34,16.78,32.64,28.66,59.91,28.66c27.27,0,50.57-11.88,59.91-28.66
			C134.51,176.562,136.06,171.052,136.06,165.282z"/>
		<g>
			<path style="fill:#FFDA79;" d="M136.06,198.256v32.68c0,24.85-28.78,45-64.28,45c-35.5,0-64.28-20.15-64.28-45v-32.68
				c0,5.77,1.55,11.28,4.37,16.34c9.34,16.78,32.64,28.66,59.91,28.66c27.27,0,50.57-11.88,59.91-28.66
				C134.51,209.536,136.06,204.026,136.06,198.256z"/>
			<g>
				<path style="fill:#13829B;" d="M225.665,197.929c29.208,0,51.78-15.638,51.78-32.5c0-17.289-23.371-32.5-51.78-32.5
					c-28.067,0-51.78,14.883-51.78,32.5C173.885,182.441,196.679,197.929,225.665,197.929z M225.665,147.929
					c22.751,0,36.78,11.431,36.78,17.5c0,5.683-13.126,17.5-36.78,17.5c-23.493,0-36.78-11.728-36.78-17.5
					C188.885,159.428,202.911,147.929,225.665,147.929z"/>
				<path style="fill:#13829B;" d="M297.444,165.429c0-29.896-32.919-52.5-71.78-52.5c-38.883,0-71.78,22.621-71.78,52.5
					c0,11.231,0,50.679,0,65.653c0,29.896,32.919,52.5,71.78,52.5c38.881,0,71.78-22.619,71.78-52.5
					C297.444,219.851,297.444,180.403,297.444,165.429z M282.444,197.721c0,21.361-26.196,37.888-56.78,37.888
					c-32.268,0-56.78-17.803-56.78-37.5v-0.389c0.096,0.09,0.201,0.175,0.298,0.265
					C197.995,224.825,254.308,224.298,282.444,197.721z M225.665,127.929c32.27,0,56.78,17.805,56.78,37.5
					c0,20.535-25.77,37.5-56.78,37.5c-31.036,0-56.78-16.983-56.78-37.5C168.884,145.727,193.405,127.929,225.665,127.929z
					 M282.444,231.082c0,19.691-24.507,37.5-56.78,37.5c-32.268,0-56.78-17.803-56.78-37.5v-0.389
					c28.545,26.955,85.043,26.931,113.56,0V231.082z"/>
				<path style="fill:#13829B;" d="M71.78,13.862C32.899,13.862,0,36.481,0,66.362c0,19.722,0,143.654,0,164.573
					c0,29.913,32.942,52.5,71.78,52.5c38.889,0,71.78-22.624,71.78-52.5c0-6.475,0-156.731,0-164.573
					C143.56,36.466,110.641,13.862,71.78,13.862z M128.56,98.654c0,21.356-26.188,37.888-56.78,37.888
					c-30.926,0-56.78-16.747-56.78-37.889C43.7,125.752,100.346,125.296,128.56,98.654z M71.78,202.489
					c-32.261,0-56.78-17.798-56.78-37.5V164.6c13.326,12.583,34.07,20.209,56.78,20.209c22.712,0,43.456-7.625,56.78-20.208v0.388
					C128.56,184.698,104.03,202.489,71.78,202.489z M71.78,169.516c-32.261,0-56.78-17.798-56.78-37.5v-0.389
					c13.326,12.584,34.069,20.209,56.78,20.209c22.712,0,43.456-7.625,56.78-20.208v0.389
					C128.56,151.725,104.03,169.516,71.78,169.516z M71.78,235.462c-32.27,0-56.78-17.805-56.78-37.5v-0.389
					c13.326,12.583,34.069,20.209,56.78,20.209c22.712,0,43.456-7.625,56.78-20.209v0.389
					C128.56,217.664,104.039,235.462,71.78,235.462z M71.78,28.862c32.268,0,56.78,17.803,56.78,37.5
					c0,20.533-25.769,37.5-56.78,37.5c-31.043,0-56.78-16.989-56.78-37.5C15,46.672,39.507,28.862,71.78,28.862z M128.56,230.936
					c0,19.709-24.53,37.5-56.78,37.5c-32.261,0-56.78-17.798-56.78-37.5v-0.389c13.326,12.583,34.07,20.208,56.78,20.208
					c22.712,0,43.456-7.625,56.78-20.208V230.936z"/>
				<path style="fill:#13829B;" d="M71.78,98.862c29.208,0,51.78-15.638,51.78-32.5c0-17.289-23.37-32.5-51.78-32.5
					c-28.067,0-51.78,14.883-51.78,32.5C20,83.375,42.794,98.862,71.78,98.862z M71.78,48.862c22.751,0,36.78,11.431,36.78,17.5
					c0,5.683-13.126,17.5-36.78,17.5c-23.493,0-36.78-11.728-36.78-17.5C35,60.361,49.026,48.862,71.78,48.862z"/>
			</g>
		</g>
	</g>
</g>
</svg>