<?xml version="1.0" encoding="iso-8859-1"?>
<!-- Uploaded to: SVG Repo, www.svgrepo.com, Generator: SVG Repo Mixer Tools -->
<svg version="1.1" id="Layer_1" xmlns="http://www.w3.org/2000/svg" xmlns:xlink="http://www.w3.org/1999/xlink" 
	 viewBox="0 0 512 512" xml:space="preserve">
<path style="fill:#2D527C;" d="M450.669,512H61.331c-7.679,0-13.904-6.226-13.904-13.904V90.309c0-7.678,6.225-13.904,13.904-13.904
	s13.904,6.226,13.904,13.904v393.883h361.53V27.809H61.331c-7.679,0-13.904-6.226-13.904-13.904S53.651,0,61.331,0h389.339
	c7.679,0,13.904,6.226,13.904,13.904v484.191C464.574,505.775,458.349,512,450.669,512z"/>
<g>
	<rect x="123.443" y="200.764" style="fill:#CEE8FA;" width="132.55" height="110.456"/>
	<rect x="256.02" y="311.234" style="fill:#CEE8FA;" width="132.55" height="110.456"/>
	<rect x="256.02" y="90.307" style="fill:#CEE8FA;" width="132.55" height="110.456"/>
</g>
<path style="fill:#2D527C;" d="M388.564,214.674c7.679,0,13.904-6.226,13.904-13.904V90.307c0-7.678-6.225-13.904-13.904-13.904
	H123.437c-7.679,0-13.904,6.226-13.904,13.904v51.411c0,7.678,6.225,13.904,13.904,13.904s13.904-6.226,13.904-13.904v-37.507
	h104.741v82.653H123.437c-7.679,0-13.904,6.226-13.904,13.904V311.23v110.461c0,7.678,6.225,13.904,13.904,13.904h132.578h11.11
	h121.44c7.679,0,13.904-6.226,13.904-13.904V311.23v-55.232c0-7.678-6.225-13.904-13.904-13.904
	c-7.679,0-13.904,6.226-13.904,13.904v41.328H269.919v-82.653h118.646V214.674z M269.919,104.211H374.66v82.653H269.919V104.211
	L269.919,104.211z M242.081,214.674v82.653H137.34v-82.653H242.081z M137.341,325.136H242.11v82.653H137.341L137.341,325.136
	L137.341,325.136z M374.66,325.136v82.653H269.919v-82.653H374.66L374.66,325.136z"/>
</svg>